<svg xmlns="http://www.w3.org/2000/svg" width="22" height="17" viewBox="0 0 22 17"><g><g><path fill="#595959" d="M21.655 3.738v12a1.2 1.2 0 0 1-1.2 1.2h-2.419v-.002a1.199 1.199 0 0 1 .02-2.398h.599a.6.6 0 0 0 .6-.6v-8.4a.6.6 0 0 0-.6-.6h-3.994l-.703-.703-1.697-1.697H9.449L7.752 4.235l-.703.703H3.055a.6.6 0 0 0-.6.6v8.4a.6.6 0 0 0 .6.6h.6a1.2 1.2 0 1 1 0 2.4h-2.4a1.2 1.2 0 0 1-1.2-1.2v-12a1.2 1.2 0 0 1 1.2-1.2h4.8L8.104.489a1.2 1.2 0 0 1 .848-.351h3.806a1.2 1.2 0 0 1 .849.351l2.048 2.049h4.8a1.2 1.2 0 0 1 1.2 1.2zm-10.8 4.8a2.403 2.403 0 0 0-2.4 2.4c0 1.323 1.077 2.4 2.4 2.4s2.4-1.077 2.4-2.4c0-1.324-1.077-2.4-2.4-2.4 0 0 1.323 0 0 0zm0-2.4a4.8 4.8 0 1 1 0 9.6 4.8 4.8 0 0 1 0-9.6z"/><path fill="#6d6c6c" d="M21.655 3.738v12a1.2 1.2 0 0 1-1.2 1.2h-2.419v-.002a1.199 1.199 0 0 1 .02-2.398h.599a.6.6 0 0 0 .6-.6v-8.4a.6.6 0 0 0-.6-.6h-3.994l-.703-.703-1.697-1.697H9.449L7.752 4.235l-.703.703H3.055a.6.6 0 0 0-.6.6v8.4a.6.6 0 0 0 .6.6h.6a1.2 1.2 0 1 1 0 2.4h-2.4a1.2 1.2 0 0 1-1.2-1.2v-12a1.2 1.2 0 0 1 1.2-1.2h4.8L8.104.489a1.2 1.2 0 0 1 .848-.351h3.806a1.2 1.2 0 0 1 .849.351l2.048 2.049h4.8a1.2 1.2 0 0 1 1.2 1.2zm-10.8 4.8a2.403 2.403 0 0 0-2.4 2.4c0 1.323 1.077 2.4 2.4 2.4s2.4-1.077 2.4-2.4c0-1.324-1.077-2.4-2.4-2.4 0 0 1.323 0 0 0zm0-2.4a4.8 4.8 0 1 1 0 9.6 4.8 4.8 0 0 1 0-9.6z"/></g></g></svg>