<svg xmlns="http://www.w3.org/2000/svg" width="32" height="32" viewBox="0 0 32 32"><g><g><path fill="#fff" d="M32 15.694v.611a2 2 0 0 1-1.671 1.973l-2.65.442a11.915 11.915 0 0 1-1.524 3.653l1.476 2.066a1.981 1.981 0 0 1-.211 2.552l-.428.429a1.98 1.98 0 0 1-2.553.21l-2.066-1.475a11.912 11.912 0 0 1-3.653 1.523l-.441 2.65A2 2 0 0 1 16.306 32h-.612a2 2 0 0 1-1.973-1.671l-.441-2.65a11.914 11.914 0 0 1-3.653-1.524L7.561 27.63a1.981 1.981 0 0 1-2.553-.211l-.428-.429a1.981 1.981 0 0 1-.211-2.552l1.476-2.066a11.917 11.917 0 0 1-1.524-3.653l-2.65-.442A2 2 0 0 1 0 16.305v-.61a2 2 0 0 1 1.671-1.974l2.65-.441a11.919 11.919 0 0 1 1.524-3.653L4.369 7.56a1.981 1.981 0 0 1 .211-2.552l.428-.428a1.98 1.98 0 0 1 2.553-.211l2.066 1.476A11.918 11.918 0 0 1 13.28 4.32l.441-2.65A2 2 0 0 1 15.694 0h.612a2 2 0 0 1 1.973 1.671l.441 2.65c1.315.305 2.544.826 3.653 1.524l2.066-1.476a1.98 1.98 0 0 1 2.553.211l.428.428c.684.685.774 1.764.211 2.552l-1.476 2.067a11.916 11.916 0 0 1 1.524 3.653l2.65.441A2 2 0 0 1 32 15.694zM22 16a6 6 0 1 0-12 0 6 6 0 0 0 12 0z"/></g></g></svg>