<svg xmlns="http://www.w3.org/2000/svg" width="17" height="20" viewBox="0 0 17 20"><g><g><path fill="#595959" d="M16.855 8.293c0 6.63-6.023 9.969-7.81 10.743-.156.068-.32.102-.485.102-.035 0-.07-.008-.105-.011-.035.003-.07.01-.105.01-.165 0-.33-.033-.484-.1-1.788-.775-7.81-4.114-7.81-10.744 0-4.611 3.76-8.35 8.4-8.355 4.639.006 8.4 3.744 8.4 8.355zm-2.4 0c0-3.28-2.69-5.95-6-5.955-3.31.005-6 2.674-6 5.955 0 4.907 4.355 7.54 5.894 8.318l.106-.054.106.054c1.54-.777 5.894-3.411 5.894-8.318zm-6-2.356a2.4 2.4 0 1 1 0 4.8 2.4 2.4 0 0 1 0-4.8z"/><path fill="#6d6c6c" d="M16.855 8.293c0 6.63-6.023 9.969-7.81 10.743-.156.068-.32.102-.485.102-.035 0-.07-.008-.105-.011-.035.003-.07.01-.105.01-.165 0-.33-.033-.484-.1-1.788-.775-7.81-4.114-7.81-10.744 0-4.611 3.76-8.35 8.4-8.355 4.639.006 8.4 3.744 8.4 8.355zm-2.4 0c0-3.28-2.69-5.95-6-5.955-3.31.005-6 2.674-6 5.955 0 4.907 4.355 7.54 5.894 8.318l.106-.054.106.054c1.54-.777 5.894-3.411 5.894-8.318zm-6-2.356a2.4 2.4 0 1 1 0 4.8 2.4 2.4 0 0 1 0-4.8z"/></g></g></svg>