<svg xmlns="http://www.w3.org/2000/svg" width="22" height="20" viewBox="0 0 22 20"><g><g><path fill="#595959" d="M9.648 7.13a2.4 2.4 0 1 1-4.801 0 2.4 2.4 0 0 1 4.8 0zm5.016.503a1.192 1.192 0 0 1 .98-.503 1.186 1.186 0 0 1 1 .523l2.605 2.605V2.93a.6.6 0 0 0-.6-.6H3.047a.6.6 0 0 0-.6.6v13.202a.6.6 0 0 0 .6.6h2.518zm.99 2.375L8.93 16.732h9.72a.6.6 0 0 0 .6-.6v-2.528zm5.996-8.88v16.804a1.2 1.2 0 0 1-1.2 1.2H1.246a1.2 1.2 0 0 1-1.2-1.2V1.13a1.2 1.2 0 0 1 1.2-1.2H20.45a1.2 1.2 0 0 1 1.2 1.2z"/><path fill="#6d6c6c" d="M9.648 7.13a2.4 2.4 0 1 1-4.801 0 2.4 2.4 0 0 1 4.8 0zm5.016.503a1.192 1.192 0 0 1 .98-.503 1.186 1.186 0 0 1 1 .523l2.605 2.605V2.93a.6.6 0 0 0-.6-.6H3.047a.6.6 0 0 0-.6.6v13.202a.6.6 0 0 0 .6.6h2.518zm.99 2.375L8.93 16.732h9.72a.6.6 0 0 0 .6-.6v-2.528zm5.996-8.88v16.804a1.2 1.2 0 0 1-1.2 1.2H1.246a1.2 1.2 0 0 1-1.2-1.2V1.13a1.2 1.2 0 0 1 1.2-1.2H20.45a1.2 1.2 0 0 1 1.2 1.2z"/></g></g></svg>