<svg xmlns="http://www.w3.org/2000/svg" width="32" height="32" viewBox="0 0 32 32"><g><g><path fill="#fff" d="M32 18.926V22c0 .7-.92 2-1.75 2h-6.93c.43.919.68 1.909.68 2.926V30c0 .7-.92 2-1.75 2H1.937C1.107 32 0 30.7 0 30v-3.074C0 24.01 1.95 21.276 4.8 20h.279a7.952 7.952 0 0 1-1.08-4A8 8 0 0 1 12 8a8 8 0 0 1 16 0c0 1.459-.397 2.822-1.079 4h.279c2.85 1.276 4.8 4.01 4.8 6.926zM16 8c0 .422.084.821.205 1.203a8.027 8.027 0 0 1 2.591 2.591c.382.122.782.206 1.204.206 2.206 0 4-1.794 4-4s-1.794-4-4-4-4 1.794-4 4zm-8 8c0 .232.026.457.068.677A3.993 3.993 0 0 0 12 20a4 4 0 1 0-4-4zm12 10.926c0-1.086-.713-2.214-1.797-2.926H5.797C4.713 24.712 4 25.84 4 26.926V28h16zm8-8c0-1.086-.713-2.214-1.797-2.926H20a7.952 7.952 0 0 1-1.079 4H28z"/></g></g></svg>