<svg xmlns="http://www.w3.org/2000/svg" width="22" height="15" viewBox="0 0 22 15"><g><g><path fill="#595959" d="M14.455 1.538v2.38l5.579-2.296c.14-.057.283-.084.422-.084.636 0 1.2.563 1.2 1.317v9.365c0 .754-.564 1.318-1.2 1.318-.139 0-.281-.028-.422-.085l-5.579-2.295v2.38a1.2 1.2 0 0 1-1.2 1.2h-12a1.2 1.2 0 0 1-1.2-1.2v-12a1.2 1.2 0 0 1 1.2-1.2h12a1.2 1.2 0 0 1 1.2 1.2zm-2.4 10.2v-8.4a.6.6 0 0 0-.6-.6h-8.4a.6.6 0 0 0-.6.6v8.4a.6.6 0 0 0 .6.6h8.4a.6.6 0 0 0 .6-.6zm7.2-7.2l-4.8 1.975v2.05l4.8 1.974z"/><path fill="#6d6c6c" d="M14.455 1.538v2.38l5.579-2.296c.14-.057.283-.084.422-.084.636 0 1.2.563 1.2 1.317v9.365c0 .754-.564 1.318-1.2 1.318-.139 0-.281-.028-.422-.085l-5.579-2.295v2.38a1.2 1.2 0 0 1-1.2 1.2h-12a1.2 1.2 0 0 1-1.2-1.2v-12a1.2 1.2 0 0 1 1.2-1.2h12a1.2 1.2 0 0 1 1.2 1.2zm-2.4 10.2v-8.4a.6.6 0 0 0-.6-.6h-8.4a.6.6 0 0 0-.6.6v8.4a.6.6 0 0 0 .6.6h8.4a.6.6 0 0 0 .6-.6zm7.2-7.2l-4.8 1.975v2.05l4.8 1.974z"/></g></g></svg>